<?xml version="1.0" standalone="no"?>
<!DOCTYPE svg PUBLIC "-//W3C//DTD SVG 20010904//EN"
 "http://www.w3.org/TR/2001/REC-SVG-20010904/DTD/svg10.dtd">
<svg version="1.0" xmlns="http://www.w3.org/2000/svg"
 width="260.000000pt" height="260.000000pt" viewBox="0 0 260.000000 260.000000"
 preserveAspectRatio="xMidYMid meet">
<metadata>
Created by potrace 1.14, written by Peter Selinger 2001-2017
</metadata>
<g transform="translate(0.000000,260.000000) scale(0.100000,-0.100000)"
fill="#000000" stroke="none">
<path d="M1849 2532 c-9 -4 -42 -29 -74 -57 -32 -27 -67 -58 -79 -68 -11 -10
-35 -31 -51 -45 -17 -15 -64 -56 -105 -92 -41 -36 -77 -67 -80 -70 -3 -3 -70
-61 -150 -130 -80 -68 -147 -127 -150 -130 -9 -9 -94 -84 -155 -135 -32 -27
-66 -57 -75 -65 -9 -8 -63 -55 -120 -104 -58 -49 -109 -94 -115 -100 -5 -6
-41 -38 -80 -71 -38 -33 -72 -62 -75 -65 -3 -4 -54 -48 -115 -99 -60 -52 -117
-101 -126 -110 -9 -9 -30 -28 -47 -43 -41 -36 -49 -70 -27 -106 15 -22 246
-304 322 -392 18 -22 279 -335 382 -459 20 -24 48 -58 63 -75 15 -17 28 -34
28 -37 0 -14 62 -31 93 -26 59 11 92 18 107 22 8 3 33 7 55 10 22 4 48 8 57
11 10 3 30 8 45 10 16 3 129 25 253 50 124 25 236 47 250 49 14 2 69 13 124
24 54 12 108 23 120 25 159 29 202 41 224 63 26 26 26 38 -3 183 -8 41 -17 86
-19 100 -3 14 -8 36 -11 50 -3 14 -8 39 -11 55 -3 17 -12 64 -21 105 -8 41
-17 86 -20 100 -2 14 -13 70 -24 125 -11 55 -22 111 -25 125 -5 28 -16 90 -19
105 -6 24 -36 172 -40 195 -2 14 -9 45 -14 70 -5 25 -13 63 -17 85 -4 22 -8
45 -9 50 -2 6 -5 24 -8 40 -3 17 -26 134 -52 260 -26 127 -48 239 -49 250 -2
11 -6 29 -9 40 -3 11 -8 36 -11 55 -18 120 -37 186 -62 208 -25 22 -46 26 -75
14z m-144 -349 c-5 -10 -9 -21 -10 -25 -2 -5 -4 -10 -5 -13 -1 -3 -3 -8 -4
-12 -1 -5 -59 -180 -129 -390 l-128 -381 -62 -12 c-34 -6 -75 -13 -92 -16 -16
-3 -50 -9 -75 -14 -25 -5 -74 -14 -110 -19 -72 -12 -68 -12 -261 -47 -135 -24
-157 -28 -234 -40 -49 -7 -67 -26 190 196 217 188 322 279 339 295 6 6 56 49
110 95 55 47 109 94 121 105 11 11 44 40 74 65 29 25 59 50 65 55 6 6 47 42
91 80 44 38 88 77 99 87 21 22 32 17 21 -9z m175 -123 c8 -41 14 -77 15 -80 0
-3 4 -21 8 -40 4 -19 9 -46 12 -60 3 -14 8 -38 10 -55 5 -24 40 -200 50 -240
1 -5 5 -28 9 -50 4 -22 14 -74 23 -115 8 -41 17 -86 19 -100 3 -14 22 -113 44
-220 22 -107 42 -208 44 -225 3 -16 8 -41 11 -55 4 -23 18 -94 31 -160 l4 -25
-21 25 c-32 37 -123 142 -134 154 -19 21 -330 379 -381 440 l-52 61 70 200
c39 110 72 209 75 220 3 11 28 85 55 165 27 80 51 150 52 155 12 48 31 94 36
88 4 -4 13 -42 20 -83z m-373 -908 c27 -31 57 -66 68 -78 22 -23 37 -41 291
-334 93 -107 179 -206 191 -220 12 -14 35 -41 52 -60 33 -38 38 -50 19 -51
-14 -1 -17 -1 -98 -18 -30 -6 -66 -13 -80 -16 -14 -3 -81 -16 -150 -30 -172
-35 -171 -35 -205 -41 -16 -3 -120 -23 -230 -45 -110 -23 -212 -42 -227 -44
-22 -3 -35 7 -90 73 -34 42 -73 88 -84 102 -12 14 -61 72 -109 130 -76 92
-118 143 -175 210 -8 10 -22 27 -30 37 -28 34 -115 138 -120 143 -3 3 -23 28
-45 55 -21 28 -44 53 -50 57 -6 5 -3 8 8 9 9 1 20 2 25 3 4 1 30 6 57 11 28 4
55 9 60 11 6 1 28 5 50 9 22 3 51 8 65 11 14 2 34 6 45 8 35 6 89 16 111 20
12 2 39 7 60 10 22 4 73 13 114 21 41 8 89 17 105 20 17 3 41 7 55 9 65 12
149 26 185 32 22 3 41 7 42 8 1 1 11 2 22 3 14 1 37 -17 68 -55z"/>
</g>
</svg>
